<?xml version="1.0" encoding="utf-8"?>
<!-- Generator: Adobe Illustrator 27.5.0, SVG Export Plug-In . SVG Version: 6.00 Build 0)  -->
<svg version="1.1" xmlns="http://www.w3.org/2000/svg" xmlns:xlink="http://www.w3.org/1999/xlink" x="0px" y="0px"
	 viewBox="0 0 500 500" style="enable-background:new 0 0 500 500;" xml:space="preserve">
<g id="Background_Simple">
	<g>
		<path style="fill:#92E3A9;" d="M471.416,327.159c-5.017-6.498-15.945-7.566-30.039-4.079
			c15.728-23.606,24.548-52.864,27.682-79.401c6.762-57.237-10.814-125.124-52.176-167.579c-2.118-2.169-4.291-4.275-6.525-6.305
			C380.598,42.772,337.59,29.824,298.16,28.857c-17.275-0.431-34.555,1.366-51.452,4.888c-21.023,4.391-38.866,11.456-54.198,20.229
			c-10.03-12.864-50.723,1.855-90.953,32.913c-40.268,31.087-64.821,66.768-54.84,79.697c7.027,9.103,29.307,4.485,55.929-9.887
			c-7.026,11.792-13.422,21.88-20.218,28.759C51.57,216.691,5.015,268.534,28.331,347.723
			c17.717,60.212,66.009,110.092,137.769,120.575c7.905,1.164,16.103,1.846,24.571,2.003c15.753,0.294,32.459-1.194,50.063-4.728
			c38.974-7.822,63.915-19.155,82.25-32.036c0.4,2.35,1.249,4.437,2.608,6.198c11.396,14.762,53.278,1.528,93.547-29.559
			C459.407,379.089,482.812,341.921,471.416,327.159z"/>
		<path style="opacity:0.7;fill:#FFFFFF;" d="M471.416,327.159c-5.017-6.498-15.945-7.566-30.039-4.079
			c15.728-23.606,24.548-52.864,27.682-79.401c6.762-57.237-10.814-125.124-52.176-167.579c-2.118-2.169-4.291-4.275-6.525-6.305
			C380.598,42.772,337.59,29.824,298.16,28.857c-17.275-0.431-34.555,1.366-51.452,4.888c-21.023,4.391-38.866,11.456-54.198,20.229
			c-10.03-12.864-50.723,1.855-90.953,32.913c-40.268,31.087-64.821,66.768-54.84,79.697c7.027,9.103,29.307,4.485,55.929-9.887
			c-7.026,11.792-13.422,21.88-20.218,28.759C51.57,216.691,5.015,268.534,28.331,347.723
			c17.717,60.212,66.009,110.092,137.769,120.575c7.905,1.164,16.103,1.846,24.571,2.003c15.753,0.294,32.459-1.194,50.063-4.728
			c38.974-7.822,63.915-19.155,82.25-32.036c0.4,2.35,1.249,4.437,2.608,6.198c11.396,14.762,53.278,1.528,93.547-29.559
			C459.407,379.089,482.812,341.921,471.416,327.159z"/>
	</g>
</g>
<g id="Dish">
	<g>
		
			<ellipse transform="matrix(0.7071 -0.7071 0.7071 0.7071 -89.6778 244.2096)" style="fill:#263238;stroke:#263238;stroke-linecap:round;stroke-linejoin:round;stroke-miterlimit:10;" cx="249.948" cy="230.355" rx="137.56" ry="137.56"/>
		
			<ellipse transform="matrix(0.7071 -0.7071 0.7071 0.7071 -86.7742 243.0069)" style="fill:#FFFFFF;stroke:#263238;stroke-linecap:round;stroke-linejoin:round;stroke-miterlimit:10;" cx="249.948" cy="226.249" rx="137.56" ry="137.56"/>
		
			<ellipse transform="matrix(0.7071 -0.7071 0.7071 0.7071 -89.6778 244.2096)" style="fill:#FFFFFF;stroke:#263238;stroke-linecap:round;stroke-linejoin:round;stroke-miterlimit:10;" cx="249.948" cy="230.355" rx="100.275" ry="100.275"/>
	</g>
</g>
<g id="Food">
	<g>
		<g>
			<g>
				<path style="fill:#263238;" d="M289.898,147.812c-29.743-10.296-70.926,1.144-86.942,10.296c0,0-44.615,22.879-49.191,67.494
					c-4.576,44.615,28.599,86.942,89.23,98.381c60.63,11.44,101.814-48.047,101.814-90.373
					C344.809,191.283,319.642,158.108,289.898,147.812z M256.062,252.338c-15.185,1.446-26.031-7.954-23.139-20.969
					c1.692-7.615,7.882-13.097,14.735-14.951c7.575-2.049,15.96,0.334,19.974,9.168
					C271.247,233.541,271.245,250.892,256.062,252.338z"/>
				<path style="fill:#92E3A9;stroke:#263238;stroke-linecap:round;stroke-linejoin:round;stroke-miterlimit:10;" d="
					M288.704,144.228c-29.743-10.296-70.926,1.144-86.942,10.296c0,0-44.615,22.879-49.191,67.494
					c-4.576,44.615,28.599,86.942,89.23,98.381c60.63,11.44,101.813-48.047,101.813-90.373
					C343.615,187.699,318.447,154.524,288.704,144.228z M254.867,248.754c-15.185,1.446-26.031-7.954-23.139-20.969
					c1.692-7.615,7.882-13.097,14.735-14.951c7.575-2.049,15.96,0.334,19.974,9.168
					C270.052,229.957,270.051,247.308,254.867,248.754z"/>
				<path style="fill:#263238;stroke:#263238;stroke-linecap:round;stroke-linejoin:round;stroke-miterlimit:10;" d="
					M339.468,228.508c-7.231-13.016-8.677-17.354-8.677-27.477c0-10.123-5.785-20.969-10.846-24.585
					c-5.062-3.616-8.677-6.508-16.631-14.462c-7.954-7.954-18.8-10.846-27.477-9.4c-8.677,1.446-13.015,1.446-23.862,0
					c-10.846-1.446-10.846-4.339-20.969-0.723c-10.123,3.615-29.646,10.123-29.646,10.123s-20.969,8.677-24.585,18.077
					c-3.616,9.4-1.446,26.754-4.339,33.985c-2.892,7.231-10.846,4.339-7.231,20.969c3.615,16.631,9.4,26.031,9.4,33.985
					s13.016,22.416,24.585,22.416c11.569,0,19.523,2.169,30.37,10.846c10.846,8.677,19.523,11.569,33.262,4.339
					c13.739-7.231,30.37-6.508,37.6-7.231c7.231-0.723,16.631-12.292,19.523-22.416c2.892-10.123,14.462-10.846,18.077-20.969
					c1.158-3.242,2.46-5.89,3.464-8.42c0.696-2.995,1.227-5.966,1.583-8.888C342.801,235.847,341.747,232.609,339.468,228.508z
					 M270.775,227.785c-5.062,3.615,0.723,13.739-6.508,21.693c-7.231,7.954-7.231-0.723-9.4-0.723
					c-3.538,0.337-6.836,0.078-9.784-0.671c-3.22-0.505-6.426-1.389-8.293-2.945c-4.339-3.615-7.231-5.785-13.016-6.508
					c-5.785-0.723-0.723-6.508,2.892-12.292c3.616-5.785,4.339-5.785,5.062-12.292c0.723-6.508,10.846-7.231,10.846-7.231
					s4.339-2.169,13.016,0c8.677,2.169,6.508,6.508,13.739,7.954C276.56,216.215,275.837,224.169,270.775,227.785z"/>
				<g>
					<path style="fill:#FFFFFF;stroke:#263238;stroke-linecap:round;stroke-linejoin:round;stroke-miterlimit:10;" d="
						M232.496,241.826c-2.48-1.66-5.004-2.73-8.722-3.195c-1.648-0.206-2.395-0.834-2.566-1.744
						c-4.17,2.484-8.497,5.045-13.01,7.694c-14.292,8.389-25.343,15.939-33.737,22.278c0.084,0.726,0.143,1.443,0.143,2.142
						c0,3.173,2.075,7.38,5.298,11.292c2.102-1.602,4.404-3.306,6.975-5.122C195.528,269.065,213.954,255.141,232.496,241.826z"/>
					<path style="fill:#FFFFFF;stroke:#263238;stroke-linecap:round;stroke-linejoin:round;stroke-miterlimit:10;" d="
						M198.001,210.283c24.101-18.539,38.933-30.59,63.034-40.787c11.225-4.749,23.654-9.296,34.389-13.362
						c-4-2.143-8.25-3.377-12.348-3.766c-3.03,1.036-6.073,2.116-9.063,3.223c-25.028,9.27-46.349,17.613-78.792,46.349
						c-12.367,10.954-22.706,20.689-30.776,28.551c0.145,1.327,0.389,2.818,0.76,4.525c0.266,1.223,0.546,2.396,0.832,3.543
						C172.978,230.86,182.677,222.072,198.001,210.283z"/>
					<path style="fill:#FFFFFF;stroke:#263238;stroke-linecap:round;stroke-linejoin:round;stroke-miterlimit:10;" d="
						M263.255,211.331c1.349,1.434,2.671,2.757,6.074,3.438c0.948,0.189,1.751,0.496,2.434,0.885
						c0.445-0.249,0.897-0.505,1.323-0.736c13.187-7.143,36.467-19.495,53.63-29.724c-1.53-3.004-3.33-5.56-5.133-7.337
						c-8.396,4.135-17.314,8.914-24.395,12.96C287.879,196.136,276.867,202.943,263.255,211.331z"/>
					<path style="fill:#FFFFFF;stroke:#263238;stroke-linecap:round;stroke-linejoin:round;stroke-miterlimit:10;" d="
						M232.299,288.149c15.759-14.832,43.568-19.467,77.866-37.079c13.677-7.023,24.395-12.42,31.999-16.554
						c-0.585-1.797-1.453-3.771-2.696-6.008c-0.277-0.498-0.529-0.96-0.789-1.434c-21.828,7.815-60.631,25.482-85.986,38.828
						c-14.898,7.841-28.79,18-39.875,27.117c3.238,0.913,6.393,2.297,9.703,4.289C225.587,294.454,228.848,291.397,232.299,288.149z
						"/>
				</g>
			</g>
			<g>
				<path style="fill:#92E3A9;" d="M246.933,295.174c-0.573,0-1.142-0.245-1.536-0.719c-0.705-0.848-0.591-2.106,0.256-2.812
					c0.186-0.155,4.624-3.823,9.563-5.342c1.052-0.325,2.172,0.268,2.497,1.322c0.324,1.055-0.268,2.172-1.322,2.497
					c-4.159,1.279-8.141,4.561-8.181,4.594C247.836,295.022,247.383,295.174,246.933,295.174z"/>
			</g>
			<g>
				<path style="fill:#92E3A9;" d="M281.322,276.482c-0.243-0.518-0.263-1.138-0.001-1.697c0.468-0.999,1.656-1.429,2.655-0.962
					c0.22,0.103,5.424,2.563,8.897,6.39c0.741,0.815,0.68,2.081-0.137,2.822c-0.818,0.741-2.081,0.68-2.822-0.137
					c-2.924-3.223-7.586-5.434-7.633-5.456C281.843,277.235,281.513,276.889,281.322,276.482z"/>
			</g>
			<g>
				<path style="fill:#FFFFFF;" d="M300.742,269.628c-0.572-0.019-1.133-0.283-1.511-0.771c-0.676-0.872-0.52-2.125,0.351-2.802
					c0.192-0.149,4.75-3.665,9.738-5.016c1.063-0.289,2.162,0.341,2.451,1.405c0.288,1.065-0.341,2.162-1.406,2.451
					c-4.2,1.138-8.29,4.284-8.331,4.315C301.649,269.507,301.192,269.643,300.742,269.628z"/>
			</g>
			<g>
				<path style="fill:#FFFFFF;" d="M191.25,284.787c-0.048-0.571,0.149-1.158,0.589-1.591c0.787-0.773,2.05-0.764,2.824,0.022
					c0.17,0.173,4.193,4.29,6.117,9.087c0.411,1.022-0.087,2.187-1.11,2.598c-1.024,0.411-2.187-0.086-2.598-1.11
					c-1.62-4.039-5.221-7.735-5.257-7.771C191.476,285.674,191.287,285.236,191.25,284.787z"/>
			</g>
			<g>
				<path style="fill:#FFFFFF;" d="M324.915,202.635c-0.048-0.571,0.149-1.158,0.589-1.591c0.787-0.773,2.05-0.764,2.824,0.022
					c0.17,0.173,4.193,4.29,6.117,9.087c0.411,1.022-0.086,2.187-1.11,2.598c-1.025,0.411-2.187-0.086-2.598-1.11
					c-1.62-4.039-5.221-7.735-5.257-7.771C325.141,203.522,324.952,203.083,324.915,202.635z"/>
			</g>
			<g>
				<path style="fill:#FFFFFF;" d="M200.946,225.413c-0.048-0.571,0.149-1.158,0.589-1.591c0.787-0.773,2.05-0.764,2.824,0.022
					c0.17,0.173,4.193,4.29,6.117,9.087c0.411,1.022-0.086,2.187-1.11,2.598c-1.024,0.411-2.187-0.087-2.598-1.111
					c-1.62-4.039-5.221-7.735-5.257-7.771C201.172,226.3,200.983,225.862,200.946,225.413z"/>
			</g>
			<g>
				<path style="fill:#FFFFFF;" d="M178.298,193.884c-0.048-0.571,0.149-1.158,0.589-1.591c0.787-0.773,2.05-0.764,2.824,0.022
					c0.17,0.173,4.193,4.29,6.117,9.087c0.411,1.022-0.087,2.187-1.11,2.598c-1.024,0.411-2.187-0.087-2.598-1.111
					c-1.62-4.039-5.221-7.735-5.257-7.771C178.524,194.771,178.336,194.333,178.298,193.884z"/>
			</g>
			<g>
				<path style="fill:#FFFFFF;" d="M218.589,274.069c-0.572-0.019-1.133-0.283-1.511-0.771c-0.676-0.872-0.52-2.125,0.351-2.802
					c0.192-0.149,4.75-3.665,9.738-5.016c1.063-0.289,2.162,0.341,2.451,1.405c0.288,1.065-0.341,2.162-1.406,2.451
					c-4.2,1.138-8.291,4.284-8.331,4.315C219.496,273.948,219.039,274.084,218.589,274.069z"/>
			</g>
			<g>
				<path style="fill:#FFFFFF;" d="M267.088,186.94c-0.215-0.531-0.202-1.15,0.089-1.694c0.521-0.973,1.729-1.34,2.702-0.821
					c0.214,0.114,5.281,2.846,8.547,6.852c0.697,0.853,0.569,2.114-0.286,2.811c-0.856,0.697-2.114,0.569-2.811-0.286
					c-2.749-3.373-7.288-5.828-7.333-5.852C267.567,187.719,267.257,187.357,267.088,186.94z"/>
			</g>
			<g>
				<path style="fill:#FFFFFF;" d="M297.561,166.914c-0.573-0.019-1.133-0.283-1.511-0.771c-0.676-0.872-0.52-2.125,0.351-2.802
					c0.192-0.149,4.75-3.665,9.738-5.016c1.063-0.289,2.162,0.341,2.451,1.405c0.288,1.065-0.341,2.162-1.406,2.451
					c-4.2,1.138-8.291,4.284-8.331,4.315C298.468,166.793,298.011,166.929,297.561,166.914z"/>
			</g>
			<g>
				<path style="fill:#FFFFFF;" d="M204.75,204.66c-0.572-0.019-1.133-0.283-1.511-0.771c-0.676-0.872-0.52-2.125,0.351-2.802
					c0.192-0.149,4.75-3.665,9.738-5.016c1.063-0.289,2.162,0.341,2.451,1.405c0.288,1.065-0.341,2.162-1.406,2.451
					c-4.2,1.138-8.29,4.284-8.331,4.315C205.658,204.539,205.2,204.675,204.75,204.66z"/>
			</g>
			<g>
				<path style="fill:#92E3A9;" d="M237.065,260.947c-0.243-0.519-0.263-1.138-0.001-1.697c0.468-0.999,1.656-1.429,2.655-0.962
					c0.22,0.103,5.424,2.563,8.897,6.39c0.741,0.815,0.68,2.081-0.137,2.822c-0.818,0.742-2.081,0.68-2.822-0.137
					c-2.924-3.222-7.586-5.434-7.633-5.456C237.586,261.7,237.257,261.354,237.065,260.947z"/>
			</g>
			<g>
				<path style="fill:#92E3A9;" d="M307.672,222.757c-0.243-0.518-0.263-1.138-0.001-1.697c0.468-0.999,1.656-1.429,2.655-0.962
					c0.22,0.103,5.424,2.563,8.897,6.39c0.741,0.815,0.68,2.081-0.137,2.822c-0.818,0.742-2.081,0.68-2.822-0.137
					c-2.924-3.223-7.586-5.434-7.633-5.456C308.193,223.51,307.864,223.165,307.672,222.757z"/>
			</g>
			<g>
				<path style="fill:#92E3A9;" d="M307.711,191.185c-0.451,0.354-1.049,0.512-1.653,0.383c-1.079-0.232-1.765-1.292-1.535-2.37
					c0.051-0.237,1.277-5.862,4.224-10.107c0.627-0.905,1.874-1.131,2.78-0.502c0.906,0.63,1.131,1.874,0.501,2.781
					c-2.482,3.574-3.588,8.614-3.599,8.665C308.328,190.509,308.066,190.907,307.711,191.185z"/>
			</g>
			<g>
				<path style="fill:#92E3A9;" d="M236.216,200.511c-0.451,0.354-1.049,0.512-1.653,0.383c-1.079-0.232-1.765-1.292-1.535-2.37
					c0.051-0.237,1.277-5.862,4.224-10.107c0.627-0.905,1.874-1.131,2.78-0.502c0.906,0.63,1.131,1.874,0.502,2.781
					c-2.482,3.574-3.588,8.614-3.599,8.664C236.833,199.834,236.57,200.233,236.216,200.511z"/>
			</g>
			<g>
				<path style="fill:#92E3A9;" d="M179.82,243.141c-0.451,0.354-1.049,0.512-1.653,0.383c-1.079-0.232-1.765-1.292-1.535-2.37
					c0.051-0.237,1.277-5.862,4.224-10.107c0.627-0.905,1.874-1.131,2.78-0.502c0.906,0.63,1.131,1.874,0.502,2.781
					c-2.482,3.574-3.588,8.614-3.599,8.665C180.436,242.465,180.174,242.863,179.82,243.141z"/>
			</g>
			<g>
				<path style="fill:#92E3A9;" d="M273.2,164.333c-0.243-0.518-0.263-1.138-0.001-1.697c0.469-0.999,1.656-1.429,2.655-0.962
					c0.22,0.103,5.424,2.563,8.897,6.39c0.741,0.815,0.68,2.081-0.137,2.822c-0.818,0.742-2.081,0.68-2.822-0.137
					c-2.924-3.223-7.586-5.434-7.633-5.456C273.721,165.086,273.392,164.741,273.2,164.333z"/>
			</g>
			<g>
				<path style="fill:#92E3A9;" d="M227.889,160.164c-0.243-0.519-0.263-1.138-0.001-1.697c0.469-0.999,1.656-1.429,2.655-0.962
					c0.22,0.103,5.424,2.563,8.897,6.39c0.741,0.815,0.68,2.081-0.137,2.822c-0.817,0.742-2.08,0.68-2.822-0.137
					c-2.924-3.223-7.586-5.434-7.633-5.456C228.41,160.917,228.081,160.571,227.889,160.164z"/>
			</g>
			<g>
				<path style="fill:#92E3A9;" d="M317.442,256.95c-0.243-0.519-0.263-1.138-0.001-1.697c0.468-0.999,1.656-1.429,2.655-0.962
					c0.22,0.103,5.424,2.563,8.897,6.39c0.741,0.815,0.68,2.081-0.137,2.822c-0.818,0.741-2.081,0.68-2.822-0.137
					c-2.924-3.223-7.586-5.434-7.633-5.456C317.962,257.703,317.633,257.358,317.442,256.95z"/>
			</g>
			<g>
				<path style="fill:#92E3A9;" d="M287.619,234.427c0.513-0.254,1.132-0.287,1.696-0.038c1.009,0.447,1.465,1.625,1.02,2.633
					c-0.098,0.222-2.445,5.478-6.196,9.033c-0.799,0.758-2.065,0.725-2.824-0.076c-0.759-0.801-0.725-2.065,0.076-2.824
					c3.159-2.993,5.269-7.702,5.29-7.749C286.877,234.964,287.215,234.627,287.619,234.427z"/>
			</g>
			<g>
				<path style="fill:#92E3A9;" d="M204.731,173.137c0.513-0.254,1.132-0.287,1.696-0.038c1.009,0.447,1.465,1.625,1.02,2.634
					c-0.098,0.222-2.445,5.478-6.196,9.033c-0.799,0.758-2.065,0.725-2.824-0.076c-0.759-0.801-0.725-2.065,0.076-2.825
					c3.159-2.993,5.269-7.702,5.29-7.749C203.99,173.673,204.328,173.337,204.731,173.137z"/>
			</g>
			<g>
				<path style="fill:#92E3A9;" d="M279.181,294.377c0.513-0.254,1.132-0.287,1.696-0.038c1.009,0.447,1.465,1.625,1.019,2.633
					c-0.098,0.222-2.445,5.478-6.196,9.033c-0.799,0.758-2.065,0.725-2.824-0.076c-0.759-0.801-0.725-2.065,0.076-2.825
					c3.159-2.993,5.269-7.702,5.29-7.749C278.44,294.913,278.778,294.577,279.181,294.377z"/>
			</g>
		</g>
		<path style="fill:#FFFFFF;" d="M249.793,132.183c-0.434-0.006-0.867-0.016-1.303-0.016c-53.748,0-97.318,43.571-97.318,97.318
			c0,14.265,3.07,27.813,8.584,40.02l90.038-42.859V132.183z"/>
	</g>
</g>
<g id="Fork">
	<g>
		<path style="opacity:0.3;" d="M261.858,123.913c5.106-7.565,7.533-12.976,8.694-18.363c0.002-0.001,0.005-0.002,0.007-0.003
			c0.013-0.06,0.022-0.119,0.034-0.179c0.071-0.338,0.133-0.677,0.194-1.015c0.045-0.249,0.091-0.499,0.132-0.749
			c0.054-0.337,0.103-0.677,0.149-1.016c0.035-0.255,0.069-0.512,0.099-0.769c0.04-0.337,0.077-0.678,0.11-1.02
			c0.026-0.267,0.049-0.536,0.071-0.806c0.027-0.338,0.054-0.678,0.076-1.021c0.018-0.287,0.034-0.581,0.049-0.873
			c0.017-0.335,0.035-0.671,0.047-1.013c0.012-0.324,0.021-0.657,0.03-0.987c0.009-0.32,0.019-0.639,0.025-0.966
			c0.008-0.402,0.012-0.818,0.016-1.232c0.003-0.271,0.008-0.537,0.01-0.814c0.005-0.696,0.006-1.407,0.006-2.141
			c0-0.129-0.003-0.287-0.008-0.463c0-0.015-0.001-0.029-0.001-0.044c0-0.004,0-0.009-0.001-0.013
			c-0.002-0.08-0.007-0.178-0.01-0.267c-0.004-0.102-0.006-0.195-0.011-0.307c-0.001-0.021-0.002-0.042-0.003-0.064
			c0-0.013-0.001-0.029-0.002-0.042c-0.005-0.115-0.012-0.244-0.018-0.369c-0.005-0.102-0.009-0.194-0.014-0.301
			c-0.001-0.02-0.002-0.039-0.003-0.059c-0.001-0.024-0.003-0.052-0.004-0.076c-0.008-0.16-0.018-0.332-0.028-0.504
			c-0.005-0.091-0.009-0.174-0.015-0.269h-0.001c-0.248-4.219-0.833-11.431-1.19-14.763c-0.678-6.331-1.849-24.059-5.314-29.01
			h-0.087v43.773v9.484c0,0.937-0.863,1.697-1.928,1.697s-1.928-0.76-1.928-1.697v-9.484V62.211c0-6.044-0.924-12.053-2.741-17.817
			l-0.509,2.258c-0.965,4.28-1.452,8.653-1.452,13.041v28.474v9.484c0,0.937-0.863,1.697-1.928,1.697
			c-1.065,0-1.928-0.76-1.928-1.697v-9.484V61.375c0-5.495-0.764-10.964-2.27-16.248l-0.209-0.732l-0.377,1.473
			c-1.226,4.798-1.847,9.73-1.847,14.681v27.618v9.484c0,0.937-0.863,1.697-1.928,1.697c-1.065,0-1.928-0.76-1.928-1.697v-9.484
			V44.394c-3.377,4.826-4.606,22.679-5.284,28.557c-0.411,3.562-0.991,10.923-1.229,15.215h-0.001c0,0,0,0.001,0,0.001
			c-0.006,0.102-0.01,0.192-0.015,0.29c-0.008,0.142-0.015,0.283-0.022,0.417c-0.002,0.036-0.004,0.077-0.006,0.113
			c-0.001,0.028-0.003,0.057-0.004,0.084c-0.005,0.102-0.008,0.189-0.013,0.285c-0.005,0.122-0.011,0.247-0.016,0.36
			c-0.001,0.015-0.002,0.032-0.002,0.047c-0.001,0.028-0.002,0.055-0.003,0.082c-0.004,0.112-0.007,0.206-0.01,0.309
			c-0.003,0.083-0.007,0.176-0.008,0.252c0,0.005,0,0.011-0.001,0.016c-0.001,0.02-0.001,0.037-0.001,0.056
			c-0.004,0.175-0.007,0.334-0.007,0.465c0,11.502-1.143,21.407,8.134,32.732c0,0,4.86,5.864,4.86,14.633
			c0,14.317-0.511,43.657-2.042,62.294c-0.704,8.57-1.948,17.236-3.086,24.11l0,0c-0.231,1.397-0.458,2.719-0.676,3.953
			c-0.011,0.06-0.021,0.119-0.032,0.179c-0.188,1.064-0.367,2.053-0.537,2.969c-0.043,0.233-0.086,0.464-0.128,0.687
			c-0.032,0.168-0.063,0.336-0.093,0.498c-0.072,0.385-0.144,0.76-0.211,1.109c-0.001,0.007-0.003,0.015-0.004,0.021
			c-0.131,0.683-0.186,1.371-0.169,2.054c0.009,0.341,0.036,0.681,0.081,1.018c0.09,0.674,0.251,1.336,0.481,1.976
			c0.345,0.96,0.844,1.869,1.489,2.689l0,0c1.366,1.738,3.273,2.934,5.385,3.423c0.704,0.163,1.43,0.248,2.167,0.248l0,0h1.897
			c1.842,0,3.62-0.529,5.14-1.491c0.912-0.577,1.73-1.311,2.413-2.18c0.43-0.547,0.795-1.133,1.093-1.747
			c0.149-0.307,0.281-0.621,0.396-0.941c0.23-0.64,0.391-1.302,0.481-1.976c0.135-1.011,0.108-2.047-0.088-3.072
			c-0.068-0.355-0.141-0.74-0.215-1.133c-0.025-0.134-0.051-0.27-0.077-0.408c-0.051-0.271-0.103-0.556-0.156-0.843
			c-0.069-0.371-0.139-0.754-0.21-1.15c-0.024-0.133-0.048-0.264-0.072-0.399c-0.06-0.332-0.121-0.671-0.182-1.019
			c-0.004-0.022-0.008-0.044-0.012-0.066c-0.132-0.747-0.269-1.527-0.408-2.34c-0.001-0.004-0.001-0.007-0.002-0.011
			c-0.071-0.415-0.143-0.839-0.215-1.27l0,0c-1.173-6.99-2.485-15.991-3.216-24.887c-1.532-18.637-2.808-47.997-2.042-62.294
			C258.012,127.783,260.651,125.885,261.858,123.913z"/>
		<g>
			<g>
				<path style="fill:#D9D9D9;stroke:#263238;stroke-linecap:round;stroke-linejoin:round;stroke-miterlimit:10;" d="
					M254.777,136.404c0.564-10.528,3.203-12.426,4.41-14.398c9.349-13.85,9.75-20.481,9.75-32.967
					c0-2.401-0.846-13.231-1.308-17.542c-0.678-6.331-1.849-24.059-5.314-29.01h-0.087v53.257c0,0.937-0.863,1.697-1.928,1.697
					s-1.928-0.76-1.928-1.697v-35.44c0-6.044-0.924-12.053-2.741-17.817l0,0l-0.509,2.258c-0.965,4.28-1.452,8.653-1.452,13.041
					v37.958c0,0.937-0.863,1.697-1.928,1.697c-1.065,0-1.928-0.76-1.928-1.697V59.467c0-5.495-0.764-10.964-2.27-16.248
					l-0.209-0.732l-0.377,1.473c-1.226,4.798-1.847,9.73-1.847,14.681v37.102c0,0.937-0.863,1.697-1.928,1.697
					s-1.928-0.76-1.928-1.697V42.487c-3.378,4.826-4.606,22.679-5.284,28.557c-0.529,4.581-1.339,15.469-1.339,17.994
					c0,11.502-1.143,21.407,8.134,32.733c0,0,4.86,5.864,4.86,14.633c0,14.317-0.511,43.657-2.042,62.294
					c-1.093,13.293-3.484,26.846-4.766,33.525c-0.524,2.732,0.163,5.55,1.882,7.737l0,0c1.821,2.317,4.605,3.671,7.552,3.671h1.897
					c2.947,0,5.731-1.353,7.552-3.671l0,0c1.718-2.187,2.406-5.005,1.881-7.737c-1.281-6.679-3.673-20.232-4.766-33.525
					C255.288,180.061,254.011,150.701,254.777,136.404z"/>
			</g>
			<path style="fill:#263238;stroke:#263238;stroke-linecap:round;stroke-linejoin:round;stroke-miterlimit:10;" d="
				M267.888,103.639c0.964-4.476,1.049-8.935,1.049-14.601c0-0.129-0.003-0.287-0.008-0.463c0-0.015-0.001-0.029-0.001-0.044
				c-0.005-0.175-0.012-0.372-0.021-0.587c-0.001-0.021-0.002-0.042-0.003-0.064c-0.01-0.22-0.021-0.458-0.034-0.713
				c-0.001-0.02-0.002-0.039-0.003-0.059c-0.014-0.267-0.03-0.55-0.047-0.85h-6.592v9.484c0,0.937-0.863,1.697-1.928,1.697
				s-1.928-0.76-1.928-1.697v-9.484h-4.702v9.484c0,0.937-0.863,1.697-1.928,1.697c-1.065,0-1.928-0.76-1.928-1.697v-9.484h-4.702
				v9.484c0,0.937-0.863,1.697-1.928,1.697s-1.928-0.76-1.928-1.697v-9.484h-6.514c0,0.001,0,0.001,0,0.002
				c-0.016,0.289-0.03,0.562-0.043,0.821c-0.001,0.028-0.003,0.056-0.004,0.084c-0.012,0.247-0.022,0.477-0.031,0.692
				c-0.001,0.028-0.002,0.055-0.003,0.082c-0.008,0.21-0.015,0.404-0.019,0.577c0,0.02-0.001,0.037-0.001,0.056
				c-0.004,0.175-0.007,0.334-0.007,0.465c0,4.987,0.249,10.187,1.092,14.85C242.537,107.162,254.736,109.822,267.888,103.639z"/>
		</g>
	</g>
</g>
<g id="Knife">
	<g>
		<path style="opacity:0.3;" d="M292.078,217.225c-0.054-0.724-0.188-1.445-0.407-2.147c-0.108-0.348-0.237-0.691-0.386-1.028
			l-0.767-1.735c-1.192-2.696-3.555-4.695-6.411-5.423c-0.337-0.086-0.676-0.153-1.017-0.202c-1.021-0.146-2.052-0.126-3.055,0.054
			c-0.334,0.06-0.665,0.138-0.991,0.233c-0.979,0.286-1.916,0.729-2.774,1.323c-0.02,0.014-0.042,0.029-0.063,0.043
			c-0.276,0.191-0.572,0.395-0.876,0.604c-0.121,0.083-0.243,0.167-0.368,0.253c-0.208,0.143-0.427,0.292-0.646,0.442
			c-0.329,0.225-0.67,0.456-1.023,0.696c-0.11,0.075-0.219,0.149-0.332,0.225c-0.277,0.188-0.56,0.379-0.851,0.574
			c-0.021,0.014-0.043,0.029-0.064,0.043c-0.952,0.64-1.973,1.32-3.053,2.031l0,0c-5.919,3.899-13.621,8.739-21.461,13.005
			c-9.654,5.253-22.728,11.92-34.585,17.557l-14.045,6.411l0,0l-9.89,4.515l0,0L113.9,288.987c0,0-13.155,6.204-1.642,11.195
			c0,0,11.55,4.199,39.656-5.901c16.033-5.762,38.846-15.625,41.298-17.096c2.451-1.472,2.994-2.875,3.25-4.927
			c0.256-2.052-0.772-10.516,4.53-15.187c0.144-0.127,0.292-0.253,0.442-0.378c14.244-6.138,35.762-15.035,50.643-20.203
			c8.122-2.821,16.551-5.188,23.299-6.927v0c1.371-0.353,2.673-0.681,3.889-0.981c0.059-0.014,0.117-0.029,0.175-0.043
			c1.038-0.256,2.007-0.49,2.905-0.703c0.252-0.06,0.502-0.119,0.741-0.176c0.145-0.034,0.29-0.068,0.431-0.101
			c0.399-0.094,0.788-0.184,1.148-0.267c1.694-0.391,3.227-1.228,4.458-2.401c0.738-0.704,1.368-1.528,1.857-2.449
			C291.843,220.822,292.21,219.011,292.078,217.225z"/>
		<g>
			<path style="fill:#D9D9D9;stroke:#263238;stroke-linecap:round;stroke-linejoin:round;stroke-miterlimit:10;" d="
				M274.744,206.393c-5.591,3.873-17.019,11.541-28.735,17.916c-9.654,5.253-22.728,11.92-34.585,17.557l-99.049,45.213
				c0,0-13.155,6.204-1.642,11.195c0,0,11.55,4.199,39.656-5.901c16.033-5.762,38.846-15.625,41.298-17.096
				c2.451-1.472,2.994-2.875,3.25-4.927c0.256-2.052-0.772-10.516,4.53-15.186c0.144-0.127,0.293-0.253,0.442-0.378
				c14.244-6.138,35.762-15.035,50.643-20.203c12.6-4.376,25.962-7.67,32.589-9.199c2.71-0.625,5.01-2.393,6.315-4.849h0
				c1.383-2.603,1.495-5.696,0.303-8.392l-0.767-1.735c-1.192-2.696-3.555-4.695-6.411-5.423
				C279.885,204.298,277.03,204.809,274.744,206.393z"/>
			<path style="fill:#263238;stroke:#263238;stroke-linecap:round;stroke-linejoin:round;stroke-miterlimit:10;" d="
				M197.379,248.277l-9.89,4.514c5.169,8.684,6.382,17.054,6.662,20.206c0.46-0.783,0.659-1.636,0.785-2.648
				c0.256-2.052-0.772-10.516,4.53-15.186c0.144-0.127,0.293-0.253,0.442-0.378c0.095-0.041,0.198-0.085,0.293-0.126
				L197.379,248.277z"/>
		</g>
	</g>
</g>
<g id="Text">
	<g>
		<path style="fill:#263238;" d="M118.456,433.378v-44.314h9.793v37.694h10.176v6.62H118.456z"/>
		<path style="fill:#263238;" d="M154.618,434.035c-3.392,0-6.046-0.558-7.96-1.669c-1.915-1.113-3.255-2.736-4.021-4.869
			c-0.766-2.134-1.149-4.75-1.149-7.85v-30.582h9.683v32.059c0,0.912,0.073,1.825,0.219,2.736c0.145,0.912,0.465,1.66,0.958,2.242
			c0.492,0.584,1.249,0.876,2.27,0.876c1.057,0,1.823-0.292,2.297-0.876c0.474-0.582,0.775-1.33,0.903-2.242
			c0.127-0.911,0.191-1.823,0.191-2.736v-32.059h9.738v30.582c0,3.1-0.393,5.716-1.177,7.85s-2.124,3.757-4.021,4.869
			C160.654,433.477,158.01,434.035,154.618,434.035z"/>
		<path style="fill:#263238;" d="M173.984,433.378v-44.314h6.893l9.082,21.337v-21.337h8.097v44.314h-6.62l-9.082-22.977v22.977
			H173.984z"/>
		<path style="fill:#263238;" d="M217.367,434.035c-3.356,0-6.009-0.611-7.959-1.834c-1.952-1.221-3.329-2.935-4.131-5.142
			c-0.803-2.207-1.204-4.805-1.204-7.796v-15.974c0-3.064,0.4-5.699,1.204-7.906c0.802-2.206,2.179-3.911,4.131-5.114
			c1.95-1.204,4.604-1.806,7.959-1.806c3.283,0,5.845,0.539,7.687,1.614c1.842,1.077,3.146,2.581,3.912,4.514
			c0.766,1.933,1.149,4.159,1.149,6.675v3.83h-9.573v-4.432c0-0.874-0.046-1.714-0.137-2.516c-0.092-0.802-0.356-1.467-0.793-1.997
			c-0.438-0.527-1.186-0.793-2.244-0.793c-1.021,0-1.778,0.274-2.27,0.821c-0.493,0.547-0.803,1.232-0.93,2.052
			c-0.128,0.819-0.192,1.687-0.192,2.598v20.843c0,0.984,0.082,1.888,0.246,2.708c0.164,0.821,0.492,1.477,0.985,1.97
			c0.492,0.492,1.212,0.738,2.16,0.738c1.021,0,1.751-0.265,2.189-0.793c0.438-0.529,0.711-1.212,0.821-2.053
			c0.109-0.838,0.164-1.695,0.164-2.571v-4.65h9.573v3.829c0,2.517-0.374,4.769-1.121,6.757c-0.748,1.988-2.043,3.555-3.884,4.705
			C223.266,433.46,220.686,434.035,217.367,434.035z"/>
		<path style="fill:#263238;" d="M235.639,433.378v-44.314h9.793v17.944h6.839v-17.944h9.847v44.314h-9.847v-19.367h-6.839v19.367
			H235.639z"/>
		<path style="fill:#263238;" d="M286.845,433.378v-37.037h-6.675v-7.277h23.142v7.277h-6.62v37.037H286.845z"/>
		<path style="fill:#263238;" d="M307.251,433.378v-44.314h9.793v44.314H307.251z"/>
		<path style="fill:#263238;" d="M323.499,433.378l0.766-44.314h10.503l4.87,25.768l5.252-25.768h10.121l0.766,44.314h-6.948
			l-0.821-29.488l-5.143,29.488h-6.181l-5.472-29.707l-0.656,29.707H323.499z"/>
		<path style="fill:#263238;" d="M361.52,433.378v-44.314h19.914v6.675h-10.121v10.997h7.714v6.783h-7.714v13.239h10.231v6.62
			H361.52z"/>
	</g>
</g>
</svg>
