<svg xmlns="http://www.w3.org/2000/svg" version="1.1" xmlns:xlink="http://www.w3.org/1999/xlink" viewBox="0 0 19.467589381019476 6.235589859076672"><g transform="matrix(0.744323949159646,0,0,0.744323949159646,11.217887989298134,2.391492923997718)"><rect width="21.60952098436082" height="21.60952098436082" x="-12.798641382972603" y="-9.828972992180411" fill="#ffffff"></rect><g transform="matrix(1,0,0,1,0,0)" clip-path="url(#SvgjsClipPath14542)"><g clip-path="url(#b6a272140-715c-4005-bf9c-b8b34b9c067d3fc5dd3c-e405-4f91-9626-4848490f576a)"><path d=" M -2.0287925541115293 1.058352212728436 C -2.027834878896165 1.0561551931167177 -1.9341517092990443 1.089504824145879 -1.7943874616920343 1.1943984271463837 C -1.731011895969388 1.2496619204565316 -1.6373287263722673 1.324585922599749 -1.6210482477110713 1.4600124648195196 C -1.6110208248678433 1.5974670251424152 -1.7086473629988177 1.7216268001226043 -1.8173153330245828 1.822070030063474 C -2.2822384831659157 2.222547271594401 -3.076207570539231 2.4429252388006173 -3.8680923059732226 2.576605432098253 C -5.473944640630786 2.845937502960451 -7.143454210191985 2.577506773477419 -7.312962723311491 2.521905277150084 C -7.88570883593562 2.401350867686561 -8.135549399473343 2.2558405687873653 -8.12135327275147 2.221702264051433 C -8.104453121892098 2.1765225274207105 -7.840641766977294 2.2531928784860633 -7.281922779566443 2.3706489269587014 C -7.195788344019843 2.3896897635935943 -6.7506383703839745 2.4833165993545174 -6.120150075656989 2.5319890338295097 C -5.4903377869643775 2.57857711636518 -4.675975850887421 2.578182779511794 -3.8841474492896273 2.4686698019430615 C -3.1012197938111026 2.351551756487611 -2.3111940749716418 2.1459895882014446 -1.8573123567250978 1.7772282964499393 C -1.7502780679490737 1.6857984803007349 -1.66121427292018 1.5721731326895547 -1.6668476565399697 1.4629418243018115 C -1.6738330522285096 1.3529218422072966 -1.7557424500602696 1.273998137694028 -1.8144423073784903 1.2181713060219015 C -1.9435031261078954 1.1088273299617617 -2.0330739256625705 1.0652812745807791 -2.0287925541115293 1.058352212728436" fill="#212245" transform="matrix(1,0,0,1,0,0)" fill-rule="nonzero"></path></g><g clip-path="url(#b6a272140-715c-4005-bf9c-b8b34b9c067d3fc5dd3c-e405-4f91-9626-4848490f576a)"><path d=" M -2.234129387052903 0.6807465086938598 C -2.2335097148547263 0.6783804875735475 -2.0846193857836557 0.7165184946795313 -1.8458202541407243 0.8408472711683141 C -1.7290965455386598 0.9058565181406999 -1.585388929397796 0.9922162890320925 -1.4616234912709913 1.1398672737068098 C -1.3367877102564272 1.2819412085979334 -1.264905735267897 1.5299227555411243 -1.369235999906424 1.754413092789787 C -1.5872479459923259 2.1990560618998742 -2.1264190922425037 2.443713912507388 -2.667054918233826 2.63136192088262 C -3.22216854012801 2.814165219344831 -3.8404887262362477 2.924466870620335 -4.466019643377817 2.979561362421889 C -5.717701149859134 3.089525010680205 -7.005154642326122 2.979505028585691 -7.9669985615692 2.6959204971654227 C -8.447019179811575 2.5542408991276844 -8.846595079963336 2.368339239674588 -9.106688401689075 2.156186012553267 C -9.376471143240858 1.9507928457756942 -9.459563551632773 1.701515620599952 -9.467055951847092 1.6251832725517867 C -9.519840756364532 1.364413944791671 -9.377935822982002 1.147641343102121 -9.252818372786448 1.0315373066982332 C -9.122856212677876 0.907828202407627 -8.994471399982844 0.8407346034959187 -8.892957827154213 0.7918931675123326 C -8.686944988178464 0.6984916670962011 -8.576361667721969 0.6848588787363075 -8.569488939705824 0.702378701793857 C -8.560531859750357 0.7242362302386451 -8.657764061027946 0.7747676813081688 -8.840792694834951 0.8877733567211719 C -8.930532495898218 0.9456282064964232 -9.044777515707574 1.0192565304070893 -9.151699136811203 1.1315861997857173 C -9.256480072139313 1.2416061818802313 -9.354726282468464 1.4033406256044252 -9.315292597129929 1.5969600206166348 C -9.308081866096597 1.6527305184525631 -9.255015392398168 1.846856917990554 -9.011089881661226 2.039011633261618 C -8.776459453896939 2.233814038833984 -8.39350203542356 2.4181383508735386 -7.926269197998112 2.559648947402683 C -6.989324834354507 2.844416489383108 -5.714659122704444 2.966153909406787 -4.4750330571694805 2.8707807247237285 C -3.855529860501087 2.8232349669726946 -3.242505054995453 2.7214960587992727 -2.6936444889192357 2.5492271877060704 C -2.1585293788753095 2.3744796278201603 -1.6292729877959626 2.134722820961864 -1.4241614901993813 1.7301332093884891 C -1.326253282887416 1.5280074051103951 -1.383939131154074 1.307009765706003 -1.497620812601454 1.1683158609867532 C -1.6107954895230492 1.025734921569848 -1.7485880528631341 0.9359951205065808 -1.8610867237503559 0.8679438463795082 C -2.091661115308394 0.7365733403659867 -2.2373967495523814 0.6882389089081817 -2.234129387052903 0.6807465086938598" fill="#212245" transform="matrix(1,0,0,1,0,0)" fill-rule="nonzero"></path></g><g clip-path="url(#b6a272140-715c-4005-bf9c-b8b34b9c067d3fc5dd3c-e405-4f91-9626-4848490f576a)"><path d=" M -2.319925819582318 0.998413011013862 C -2.406060255128919 0.6899289239941182 -2.6513941117708075 0.2715938563884541 -3.0973327591134465 -0.06500081489404574 C -3.967239857681541 -0.7555409790080012 -5.603456130049778 -1.0612083742178497 -7.014844062152163 -0.4611403510377343 C -7.703299874326795 -0.1696127487135608 -8.34832229879284 0.3909652552918208 -8.513493106525107 1.1311918629323308 C -8.53304094768578 1.221720337702369 -8.55056077074333 1.3402467290627675 -8.551462112122497 1.4042419669835908 C -8.55270145651885 1.492967758995296 -8.530167922039688 1.5476679139434646 -8.4813828198923 1.5742011507926792 C -8.432597717744912 1.6007907214780919 -8.401501440163665 1.614085506820798 -8.361560750299349 1.6326756727661076 C -8.201516321661094 1.705909659823388 -8.04079588698846 1.7669192044257218 -7.881765467401768 1.8204363488137347 C -7.563479292883589 1.9267946315553846 -7.252234847890147 2.0021129705519876 -6.958960896643838 2.057038460844948 C -5.7807387125645935 2.2699803616730403 -4.914211644168374 2.1853669397037825 -4.7490971702723055 2.181198235825137 C -3.6653468294969533 2.09979584251916 -3.1770451373334874 1.8762631804858616 -3.1888752429350475 1.847589257861126 C -3.2025643651311393 1.7950861225246761 -3.697175446948771 1.9475818171124128 -4.759349928460324 2.0271815276600567 C -4.921084372184518 2.031293897702504 -5.774936327436208 2.118667677645459 -6.933216333501393 1.9171615455655426 C -7.221476573326089 1.8651090809186757 -7.52731297004453 1.7933397736025412 -7.839064419563753 1.6916008654291192 C -7.994714808978573 1.6404497421614188 -8.15205521347933 1.5820315540241885 -8.306747927678785 1.5125156001559703 L -8.421274616669132 1.4577591113716033 L -8.423020965591267 1.4568577699924372 L -8.421612619686318 1.4112836965083293 C -8.41783825266106 1.327008277556259 -8.405839145550905 1.242620190931793 -8.388544657838148 1.158739108833108 C -8.243372361956139 0.4741703313561312 -7.637783622828628 -0.07221154592737777 -6.971185339098784 -0.36114779178644796 C -5.606892494057849 -0.9578357847946886 -3.9941674313841418 -0.67937763246843 -3.1334427481163063 -0.01706072028962602 C -2.6916164708161148 0.30522515659860505 -2.443803925381518 0.707786750068855 -2.349613751258616 1.007764427822715 C -2.252212548472432 1.309995459024491 -2.2684366932974314 1.4970801290377427 -2.257676930583628 1.4955591154603995 C -2.2579585997646188 1.4971927967101388 -2.2305803553724353 1.3094884544987098 -2.319925819582318 0.998413011013862" fill="#212245" transform="matrix(1,0,0,1,0,0)" fill-rule="nonzero"></path></g><g clip-path="url(#b6a272140-715c-4005-bf9c-b8b34b9c067d3fc5dd3c-e405-4f91-9626-4848490f576a)"><path d=" M -4.746956484496784 -0.7114879191012367 C -4.743182117471524 -0.706981212205404 -4.739745753463452 -0.7024745053095713 -4.736253055619181 -0.6980241322499368 C -4.717662889673871 -0.7016858316028007 -4.697720711659812 -0.6992634766462906 -4.680257222438461 -0.6892360538030631 C -4.67355349593091 -0.6854053529416053 -4.667131438604348 -0.6812929828991581 -4.6610473842949744 -0.6768989436757211 C -4.670624136448619 -0.6993198104824886 -4.682735911231169 -0.7227546863408183 -4.698509385366583 -0.7469782359059187 C -4.788023851085059 -0.8916998610983442 -4.992741011828255 -1.0160286375871268 -5.216161006189159 -1.0546173153826939 C -5.439637334386259 -1.0957410158071665 -5.677816793831014 -1.0565889996496207 -5.843156603071875 -0.9711869039735923 C -6.011763774812213 -0.8888268354522508 -6.096715199798657 -0.7655684018512283 -6.109277645270791 -0.7420208583205028 C -6.204425494609057 -0.5798920777429237 -6.146007306471827 -0.4780968357333042 -6.108995976089801 -0.48513856525804266 C -6.062069890536944 -0.48716658336116736 -6.0439867291174165 -0.5525138333507406 -5.978526811455447 -0.659942458980151 C -5.969513397663782 -0.6759412684603568 -5.913517564483062 -0.7693427688764882 -5.776513674849749 -0.8455061154160597 C -5.643058816896905 -0.923021474024381 -5.434905292145635 -0.9705672317754153 -5.232103481833167 -0.9466816852275023 C -5.030090345227469 -0.9249368244551098 -4.8399636480595305 -0.8290003014100726 -4.746956484496784 -0.7114879191012367" fill="#212245" transform="matrix(1,0,0,1,0,0)" fill-rule="nonzero"></path></g><g clip-path="url(#b6a272140-715c-4005-bf9c-b8b34b9c067d3fc5dd3c-e405-4f91-9626-4848490f576a)"><path d=" M -5.37367041219851 -0.5512744889543868 C -5.565599792124782 -0.5512744889543868 -5.752966131319023 -0.5379233697754826 -5.933966747022902 -0.5125168096502262 C -5.954134260381752 -0.41393259630388735 -6.022298202181221 -0.34131828144478393 -6.103531593978604 -0.34131828144478393 C -6.16747049806323 -0.34131828144478393 -6.223240995899159 -0.38644168423930814 -6.253999270463217 -0.45364795082341225 C -7.360733816407316 -0.20059635862240988 -8.158758939986878 0.5164770423407601 -8.158758939986878 1.3615409191455772 C -8.158758939986878 1.3615409191455772 -7.176747507384947 1.9012190699215346 -5.37367041219851 1.9012190699215346 C -4.5434223343137425 1.9012190699215346 -3.8829081048932714 1.8022968535580084 -3.4209143142342286 1.6633212796577697 C -2.976722015813725 1.5297537540325297 -2.7738638716650588 1.3615409191455772 -2.7738638716650588 1.3615409191455772 C -2.7738638716650588 0.30511248892620957 -3.835475014814633 -0.5512744889543868 -5.37367041219851 -0.5512744889543868" fill="#a4cb6a" transform="matrix(1,0,0,1,0,0)" fill-rule="nonzero"></path></g><g clip-path="url(#b6a272140-715c-4005-bf9c-b8b34b9c067d3fc5dd3c-e405-4f91-9626-4848490f576a)"><path d=" M -7.595758581024988 2.2085764802173204 C -8.589431117719887 1.9705660222811594 -8.251822437385824 2.3114983989508984 -8.251822437385824 2.3114983989508984 C -8.251822437385824 2.3114983989508984 -9.13947469435626 1.8483779315678972 -9.13947469435626 1.526768060714041 C -9.13947469435626 1.2051581898601849 -8.573432308239681 0.9349811114550182 -8.573432308239681 0.9349811114550182 C -8.573432308239681 0.9349811114550182 -8.71212621295893 1.4103260212929651 -8.676354226973258 1.5653567385096077 C -8.637765549177692 1.7326118981811964 -8.251822437385824 1.8169999848056624 -8.251822437385824 1.8169999848056624 C -8.251822437385824 1.8169999848056624 -5.945008178917692 2.847683851882586 -2.9090650785400394 1.9600315949121505 C -1.9800074519641413 1.6884461706020368 -2.1337988247844297 1.5648497339838268 -2.1541353396518748 1.3209242232468852 C -2.167035788141197 1.1665695120646173 -2.218468580589885 1.0636475933310399 -2.218468580589885 1.0636475933310399 C -2.218468580589885 1.0636475933310399 -1.7425039985537616 1.3209242232468852 -1.8196813541448957 1.488179382918474 C -1.896858709736028 1.6554345425900623 -2.257057258385453 1.9399767492256954 -3.0675321597647542 2.158664701345974 C -3.820659215894585 2.361917182348026 -5.447411403781572 2.7231297400490115 -7.595758581024988 2.2085764802173204" fill="#a4cb6a" transform="matrix(1,0,0,1,0,0)" fill-rule="nonzero"></path></g><g clip-path="url(#b6a272140-715c-4005-bf9c-b8b34b9c067d3fc5dd3c-e405-4f91-9626-4848490f576a)"><path d=" M -3.507274085125621 -0.0936184036825829 C -3.395620421781368 0.04530083638145799 -3.3689745172597574 0.2091196320449744 -3.4476728864282347 0.2723261962590271 C -3.5263149217605143 0.33558909430927764 -3.6805569652703864 0.2742415466897561 -3.7922106286146393 0.13532230662571476 C -3.9038079581226945 -0.003596933438326122 -3.930510196480503 -0.16741572910184221 -3.851868161148224 -0.23067862715209286 C -3.773169791979747 -0.29388519136614555 -3.6189277484698748 -0.23253764374662378 -3.507274085125621 -0.0936184036825829" fill="#dceac6" transform="matrix(1,0,0,1,0,0)" fill-rule="nonzero"></path></g><g clip-path="url(#b6a272140-715c-4005-bf9c-b8b34b9c067d3fc5dd3c-e405-4f91-9626-4848490f576a)"><path d=" M -9.283463979678112 0.8388192530651892 C -9.829169850927245 1.081336417897183 -10.33583637369123 2.510525842238107 -7.633445917441389 3.004235582676572 C -10.829546114129695 3.225120554408568 -11.67410298640873 1.393144201252603 -9.283463979678112 0.8388192530651892" fill="#64c6c4" transform="matrix(1,0,0,1,0,0)" fill-rule="nonzero"></path></g><g clip-path="url(#b6a272140-715c-4005-bf9c-b8b34b9c067d3fc5dd3c-e405-4f91-9626-4848490f576a)"><path d=" M -2.046650380186266 0.550840682421484 C -1.5919236543967532 0.6655927067566223 -0.0328284037834532 1.5209656755856567 -2.0856333948352184 2.6924277993211514 C 0.3851123269688248 2.296175595505068 -0.08476820075792446 0.743558736054527 -2.046650380186266 0.550840682421484" fill="#64c6c4" transform="matrix(1,0,0,1,0,0)" fill-rule="nonzero"></path></g></g><g><path d=" M 0.7095 1.0679999999999998 L 0.378 0.6044999999999998 L 0.378 1.0679999999999998 L 0.084 1.0679999999999998 L 0.084 0.010499999999999732 L 0.378 0.010499999999999732 L 0.378 0.4664999999999998 L 0.7065 0.010499999999999732 L 1.0455 0.010499999999999732 L 0.657 0.5234999999999999 L 1.065 1.0679999999999998 L 0.7095 1.0679999999999998 M 1.465519775390625 0.010499999999999732 L 1.465519775390625 1.0679999999999998 L 1.171519775390625 1.0679999999999998 L 1.171519775390625 0.010499999999999732 L 1.465519775390625 0.010499999999999732 M 2.428494873046875 0.010499999999999732 L 2.428494873046875 0.24449999999999983 L 2.146494873046875 0.24449999999999983 L 2.146494873046875 1.0679999999999998 L 1.8524948730468749 1.0679999999999998 L 1.8524948730468749 0.24449999999999983 L 1.573494873046875 0.24449999999999983 L 1.573494873046875 0.010499999999999732 L 2.428494873046875 0.010499999999999732 M 2.5657507324218747 0.2587499999999998 Q 2.631000732421875 0.13649999999999984 2.7510007324218746 0.06824999999999981 Q 2.8710007324218747 -2.220446049250313e-16 3.027000732421875 -2.220446049250313e-16 Q 3.225000732421875 -2.220446049250313e-16 3.3600007324218746 0.10574999999999979 Q 3.495000732421875 0.2114999999999998 3.534000732421875 0.3929999999999998 L 3.217500732421875 0.3929999999999998 Q 3.1890007324218748 0.33299999999999985 3.138750732421875 0.30149999999999977 Q 3.088500732421875 0.2699999999999998 3.022500732421875 0.2699999999999998 Q 2.920500732421875 0.2699999999999998 2.8597507324218747 0.3427499999999998 Q 2.7990007324218746 0.41549999999999987 2.7990007324218746 0.5369999999999998 Q 2.7990007324218746 0.6599999999999998 2.8597507324218747 0.7327499999999998 Q 2.920500732421875 0.8054999999999999 3.022500732421875 0.8054999999999999 Q 3.088500732421875 0.8054999999999999 3.138750732421875 0.7739999999999998 Q 3.1890007324218748 0.7424999999999998 3.217500732421875 0.6824999999999999 L 3.534000732421875 0.6824999999999999 Q 3.495000732421875 0.8639999999999999 3.3600007324218746 0.9697499999999999 Q 3.225000732421875 1.0755 3.027000732421875 1.0755 Q 2.8710007324218747 1.0755 2.7510007324218746 1.0072499999999998 Q 2.631000732421875 0.9389999999999998 2.5657507324218747 0.8167499999999999 Q 2.500500732421875 0.6944999999999999 2.500500732421875 0.5369999999999998 Q 2.500500732421875 0.3809999999999998 2.5657507324218747 0.2587499999999998 M 4.618494140625 0.010499999999999732 L 4.618494140625 1.0679999999999998 L 4.324494140625 1.0679999999999998 L 4.324494140625 0.6434999999999998 L 3.965994140625 0.6434999999999998 L 3.965994140625 1.0679999999999998 L 3.671994140625 1.0679999999999998 L 3.671994140625 0.010499999999999732 L 3.965994140625 0.010499999999999732 L 3.965994140625 0.4079999999999998 L 4.324494140625 0.4079999999999998 L 4.324494140625 0.010499999999999732 L 4.618494140625 0.010499999999999732 M 5.078965576171875 0.24599999999999977 L 5.078965576171875 0.41849999999999987 L 5.416465576171875 0.41849999999999987 L 5.416465576171875 0.6419999999999999 L 5.078965576171875 0.6419999999999999 L 5.078965576171875 0.8324999999999998 L 5.461465576171875 0.8324999999999998 L 5.461465576171875 1.0679999999999998 L 4.784965576171874 1.0679999999999998 L 4.784965576171874 0.010499999999999732 L 5.461465576171875 0.010499999999999732 L 5.461465576171875 0.24599999999999977 L 5.078965576171875 0.24599999999999977 M 6.584926025390625 1.0679999999999998 L 6.2909260253906245 1.0679999999999998 L 5.899426025390625 0.47699999999999987 L 5.899426025390625 1.0679999999999998 L 5.605426025390624 1.0679999999999998 L 5.605426025390624 0.010499999999999732 L 5.899426025390625 0.010499999999999732 L 6.2909260253906245 0.6089999999999998 L 6.2909260253906245 0.010499999999999732 L 6.584926025390625 0.010499999999999732 L 6.584926025390625 1.0679999999999998" fill="#212245" fill-rule="nonzero"></path></g><g><path d=" M 0.38925 1.458075 Q 0.4515 1.491075 0.48562500000000003 1.5507 Q 0.51975 1.610325 0.51975 1.688325 Q 0.51975 1.7655750000000001 0.48562500000000003 1.8255750000000002 Q 0.4515 1.885575 0.388875 1.9185750000000001 Q 0.32625 1.951575 0.24375 1.951575 L 0.0465 1.951575 L 0.0465 1.425075 L 0.24375 1.425075 Q 0.327 1.425075 0.38925 1.458075 M 0.34875 1.8008250000000001 Q 0.38925 1.761075 0.38925 1.688325 Q 0.38925 1.615575 0.34875 1.575075 Q 0.30825 1.534575 0.23550000000000001 1.534575 L 0.17475000000000002 1.534575 L 0.17475000000000002 1.840575 L 0.23550000000000001 1.840575 Q 0.30825 1.840575 0.34875 1.8008250000000001 M 0.7199923095703125 1.527825 L 0.7199923095703125 1.634325 L 0.8917423095703125 1.634325 L 0.8917423095703125 1.733325 L 0.7199923095703125 1.733325 L 0.7199923095703125 1.8488250000000002 L 0.9142423095703125 1.8488250000000002 L 0.9142423095703125 1.951575 L 0.5917423095703125 1.951575 L 0.5917423095703125 1.425075 L 0.9142423095703125 1.425075 L 0.9142423095703125 1.527825 L 0.7199923095703125 1.527825 M 1.1257540283203125 1.852575 L 1.2937540283203126 1.852575 L 1.2937540283203126 1.951575 L 0.9975040283203125 1.951575 L 0.9975040283203125 1.425075 L 1.1257540283203125 1.425075 L 1.1257540283203125 1.852575 M 1.483496337890625 1.425075 L 1.483496337890625 1.951575 L 1.355246337890625 1.951575 L 1.355246337890625 1.425075 L 1.483496337890625 1.425075 M 1.5884835205078125 1.54845 Q 1.6222335205078124 1.487325 1.6826085205078125 1.4532 Q 1.7429835205078126 1.419075 1.8194835205078124 1.419075 Q 1.9132335205078126 1.419075 1.9799835205078125 1.468575 Q 2.0467335205078125 1.518075 2.0692335205078125 1.603575 L 1.9282335205078125 1.603575 Q 1.9124835205078126 1.570575 1.8836085205078126 1.553325 Q 1.8547335205078124 1.536075 1.8179835205078125 1.536075 Q 1.7587335205078125 1.536075 1.7219835205078124 1.577325 Q 1.6852335205078126 1.618575 1.6852335205078126 1.687575 Q 1.6852335205078126 1.756575 1.7219835205078124 1.797825 Q 1.7587335205078125 1.839075 1.8179835205078125 1.839075 Q 1.8547335205078124 1.839075 1.8836085205078126 1.821825 Q 1.9124835205078126 1.804575 1.9282335205078125 1.7715750000000001 L 2.0692335205078125 1.7715750000000001 Q 2.0467335205078125 1.857075 1.9799835205078125 1.9062000000000001 Q 1.9132335205078126 1.955325 1.8194835205078124 1.955325 Q 1.7429835205078126 1.955325 1.6826085205078125 1.9212 Q 1.6222335205078124 1.887075 1.5884835205078125 1.826325 Q 1.5547335205078125 1.7655750000000001 1.5547335205078125 1.687575 Q 1.5547335205078125 1.609575 1.5884835205078125 1.54845 M 2.27625146484375 1.425075 L 2.27625146484375 1.951575 L 2.14800146484375 1.951575 L 2.14800146484375 1.425075 L 2.27625146484375 1.425075 M 2.4821136474609373 1.922325 Q 2.4202386474609376 1.887825 2.3838636474609376 1.82595 Q 2.3474886474609375 1.764075 2.3474886474609375 1.686825 Q 2.3474886474609375 1.609575 2.3838636474609376 1.548075 Q 2.4202386474609376 1.486575 2.4821136474609373 1.452075 Q 2.5439886474609374 1.417575 2.6182386474609376 1.417575 Q 2.6924886474609373 1.417575 2.7543636474609374 1.452075 Q 2.8162386474609375 1.486575 2.8518636474609376 1.548075 Q 2.8874886474609376 1.609575 2.8874886474609376 1.686825 Q 2.8874886474609376 1.764075 2.8514886474609376 1.82595 Q 2.8154886474609375 1.887825 2.7539886474609374 1.922325 Q 2.6924886474609373 1.956825 2.6182386474609376 1.956825 Q 2.5439886474609374 1.956825 2.4821136474609373 1.922325 M 2.7191136474609374 1.797825 Q 2.7569886474609375 1.755825 2.7569886474609375 1.686825 Q 2.7569886474609375 1.617075 2.7191136474609374 1.57545 Q 2.6812386474609373 1.533825 2.6182386474609376 1.533825 Q 2.5544886474609374 1.533825 2.5166136474609373 1.575075 Q 2.4787386474609376 1.616325 2.4787386474609376 1.686825 Q 2.4787386474609376 1.756575 2.5166136474609373 1.7982 Q 2.5544886474609374 1.839825 2.6182386474609376 1.839825 Q 2.6812386474609373 1.839825 2.7191136474609374 1.797825 M 3.0847467041015624 1.425075 L 3.0847467041015624 1.740075 Q 3.0847467041015624 1.787325 3.1079967041015624 1.8128250000000001 Q 3.1312467041015624 1.838325 3.1762467041015627 1.838325 Q 3.2212467041015627 1.838325 3.2452467041015627 1.8128250000000001 Q 3.2692467041015627 1.787325 3.2692467041015627 1.740075 L 3.2692467041015627 1.425075 L 3.3974967041015627 1.425075 L 3.3974967041015627 1.739325 Q 3.3974967041015627 1.809825 3.3674967041015624 1.858575 Q 3.3374967041015626 1.9073250000000002 3.2868717041015625 1.932075 Q 3.2362467041015623 1.956825 3.1739967041015626 1.956825 Q 3.1117467041015625 1.956825 3.0626217041015624 1.93245 Q 3.0134967041015623 1.908075 2.9849967041015626 1.85895 Q 2.9564967041015624 1.809825 2.9564967041015624 1.739325 L 2.9564967041015624 1.425075 L 3.0847467041015624 1.425075 M 3.574509521484375 1.938075 Q 3.528759521484375 1.9193250000000002 3.501384521484375 1.882575 Q 3.474009521484375 1.845825 3.472509521484375 1.794075 L 3.609009521484375 1.794075 Q 3.612009521484375 1.823325 3.629259521484375 1.8387 Q 3.646509521484375 1.8540750000000001 3.674259521484375 1.8540750000000001 Q 3.702759521484375 1.8540750000000001 3.719259521484375 1.84095 Q 3.735759521484375 1.827825 3.735759521484375 1.804575 Q 3.735759521484375 1.785075 3.722634521484375 1.7723250000000002 Q 3.709509521484375 1.7595750000000001 3.690384521484375 1.751325 Q 3.671259521484375 1.7430750000000002 3.636009521484375 1.732575 Q 3.585009521484375 1.716825 3.552759521484375 1.7010750000000001 Q 3.520509521484375 1.6853250000000002 3.497259521484375 1.6545750000000001 Q 3.474009521484375 1.623825 3.474009521484375 1.574325 Q 3.474009521484375 1.500825 3.527259521484375 1.4592 Q 3.580509521484375 1.417575 3.666009521484375 1.417575 Q 3.753009521484375 1.417575 3.806259521484375 1.4592 Q 3.859509521484375 1.500825 3.863259521484375 1.575075 L 3.724509521484375 1.575075 Q 3.723009521484375 1.549575 3.705759521484375 1.53495 Q 3.688509521484375 1.5203250000000001 3.661509521484375 1.5203250000000001 Q 3.638259521484375 1.5203250000000001 3.624009521484375 1.5327000000000002 Q 3.609759521484375 1.545075 3.609759521484375 1.568325 Q 3.609759521484375 1.593825 3.633759521484375 1.608075 Q 3.657759521484375 1.622325 3.708759521484375 1.638825 Q 3.759759521484375 1.656075 3.791634521484375 1.6718250000000001 Q 3.823509521484375 1.687575 3.846759521484375 1.717575 Q 3.870009521484375 1.747575 3.870009521484375 1.7948250000000001 Q 3.870009521484375 1.839825 3.847134521484375 1.876575 Q 3.824259521484375 1.9133250000000002 3.780759521484375 1.935075 Q 3.737259521484375 1.956825 3.678009521484375 1.956825 Q 3.620259521484375 1.956825 3.574509521484375 1.938075" fill="#64c6c4" fill-rule="nonzero"></path></g></g><defs><clipPath id="SvgjsClipPath14542"><path d=" M -10.656709779631258 -1.0710416278676633 h 10.256709779631258 v 4.093658255735327 h -10.256709779631258 Z"></path></clipPath><clipPath id="b6a272140-715c-4005-bf9c-b8b34b9c067d3fc5dd3c-e405-4f91-9626-4848490f576a"><path d=" M -10.71304774087242 -1.1274006317503913 L -0.3436785119235104 -1.1274006317503913 L -0.3436785119235104 3.078934249474998 L -10.71304774087242 3.078934249474998 Z"></path></clipPath></defs></svg>